<svg version="1.1" id="Layer_1" xmlns="http://www.w3.org/2000/svg" xmlns:xlink="http://www.w3.org/1999/xlink" x="0px" y="0px"
	 width="100%" viewBox="0 0 400 400" enable-background="new 0 0 400 400" xml:space="preserve">
<path fill="#04DBC2" opacity="1.000000" stroke="none" 
	d="
M258.000000,401.000000 
	C172.000000,401.000000 86.500000,401.000000 1.000000,401.000000 
	C1.000000,267.666656 1.000000,134.333328 1.000000,1.000000 
	C134.333328,1.000000 267.666656,1.000000 401.000000,1.000000 
	C401.000000,134.333328 401.000000,267.666656 401.000000,401.000000 
	C353.500000,401.000000 306.000000,401.000000 258.000000,401.000000 
M307.600037,290.483093 
	C307.599243,227.846573 307.604431,165.210037 307.589752,102.573517 
	C307.588013,95.143166 305.838257,93.366150 298.505676,93.331299 
	C288.677277,93.284576 278.846588,93.431114 269.020782,93.265442 
	C265.050720,93.198509 262.017822,94.439476 259.339081,97.385895 
	C255.532471,101.572876 251.432007,105.493217 247.445465,109.515968 
	C222.236313,134.953934 197.018616,160.383438 171.817734,185.829605 
	C167.465820,190.223877 167.170975,192.860764 170.936005,196.954086 
	C204.199173,233.117599 237.489044,269.256653 270.880646,305.301422 
	C272.308777,306.843018 274.775146,308.176727 276.815430,308.264069 
	C284.796875,308.605835 292.801697,308.443634 300.797394,308.395966 
	C305.319214,308.368988 307.451752,305.817291 307.566864,301.468628 
	C307.654999,298.139099 307.594391,294.805634 307.600037,290.483093 
M94.233902,243.535950 
	C94.234512,262.344208 94.217979,281.152466 94.245010,299.960693 
	C94.254471,306.544250 96.003357,308.400696 102.446716,308.409668 
	C131.408035,308.449982 160.370178,308.514618 189.329514,308.271790 
	C191.861542,308.250610 195.287369,306.701416 196.681274,304.722931 
	C198.709747,301.843719 196.621338,298.895142 194.239914,296.418243 
	C176.708801,278.184174 158.591782,260.450134 142.045761,241.357086 
	C132.763855,230.646332 122.958366,226.243073 108.942429,227.379013 
	C94.308411,228.565048 94.233841,227.644958 94.233902,243.535950 
M170.151428,117.656303 
	C174.465088,113.253845 179.028580,109.059601 182.962051,104.340263 
	C184.412628,102.599846 185.462357,99.184906 184.715637,97.330872 
	C183.970230,95.480034 180.758270,93.525864 178.608734,93.504326 
	C152.788132,93.245529 126.963913,93.302368 101.140907,93.373154 
	C96.820961,93.384995 94.254395,95.691673 94.249176,100.202461 
	C94.222191,123.526726 94.135216,146.852203 94.404060,170.173401 
	C94.428856,172.324417 96.307762,175.348663 98.198875,176.406555 
	C102.844101,179.005066 111.872681,176.799530 115.634644,172.979126 
	C133.634201,154.699997 151.644989,136.431946 170.151428,117.656303 
z"/>
<path fill="#FCFFFE" opacity="1.000000" stroke="none" 
	d="
M307.599976,290.978516 
	C307.594391,294.805634 307.654999,298.139099 307.566864,301.468628 
	C307.451752,305.817291 305.319214,308.368988 300.797394,308.395966 
	C292.801697,308.443634 284.796875,308.605835 276.815430,308.264069 
	C274.775146,308.176727 272.308777,306.843018 270.880646,305.301422 
	C237.489044,269.256653 204.199173,233.117599 170.936005,196.954086 
	C167.170975,192.860764 167.465820,190.223877 171.817734,185.829605 
	C197.018616,160.383438 222.236313,134.953934 247.445465,109.515968 
	C251.432007,105.493217 255.532471,101.572876 259.339081,97.385895 
	C262.017822,94.439476 265.050720,93.198509 269.020782,93.265442 
	C278.846588,93.431114 288.677277,93.284576 298.505676,93.331299 
	C305.838257,93.366150 307.588013,95.143166 307.589752,102.573517 
	C307.604431,165.210037 307.599243,227.846573 307.599976,290.978516 
z"/>
<path fill="#FCFFFE" opacity="1.000000" stroke="none" 
	d="
M94.233917,243.044373 
	C94.233841,227.644958 94.308411,228.565048 108.942429,227.379013 
	C122.958366,226.243073 132.763855,230.646332 142.045761,241.357086 
	C158.591782,260.450134 176.708801,278.184174 194.239914,296.418243 
	C196.621338,298.895142 198.709747,301.843719 196.681274,304.722931 
	C195.287369,306.701416 191.861542,308.250610 189.329514,308.271790 
	C160.370178,308.514618 131.408035,308.449982 102.446716,308.409668 
	C96.003357,308.400696 94.254471,306.544250 94.245010,299.960693 
	C94.217979,281.152466 94.234512,262.344208 94.233917,243.044373 
z"/>
<path fill="#FAFEFE" opacity="1.000000" stroke="none" 
	d="
M169.901611,117.908127 
	C151.644989,136.431946 133.634201,154.699997 115.634644,172.979126 
	C111.872681,176.799530 102.844101,179.005066 98.198875,176.406555 
	C96.307762,175.348663 94.428856,172.324417 94.404060,170.173401 
	C94.135216,146.852203 94.222191,123.526726 94.249176,100.202461 
	C94.254395,95.691673 96.820961,93.384995 101.140907,93.373154 
	C126.963913,93.302368 152.788132,93.245529 178.608734,93.504326 
	C180.758270,93.525864 183.970230,95.480034 184.715637,97.330872 
	C185.462357,99.184906 184.412628,102.599846 182.962051,104.340263 
	C179.028580,109.059601 174.465088,113.253845 169.901611,117.908127 
z"/>
</svg>